<svg width="41.01mm" height="41.01mm" version="1.1" viewBox="0 0 41.01 41.01" xmlns="http://www.w3.org/2000/svg">
 <g transform="translate(-1.8709 .054631)">
  <g transform="matrix(.99998 0 0 .99998 12.248 -146.95)">
   <g transform="matrix(.60507 0 0 .60507 -93.513 97.894)">
    <g display="none" fill="#141e42">
     <path d="m102.39 378.49h7.559c4.208 0 6.709 2.384 6.709 5.891 0 3.39-2.525 5.82-6.265 5.82h-5.688v7.281h-2.314v-18.992zm7.909 9.584c2.501 0 3.974-1.402 3.974-3.787 0-2.384-1.496-3.693-4.348-3.693h-5.221v7.48z" display="inline"/>
     <path d="m122.39 395.85c1.566 0 2.945-0.654 4.091-1.986l1.566 1.262c-1.566 1.823-3.39 2.665-5.728 2.665-1.94 0-3.67-0.725-4.862-2.01-1.052-1.146-1.636-2.688-1.636-4.349 0-3.927 2.595-6.521 6.312-6.521 3.787 0 6.429 2.734 6.429 6.989v0.163h-10.566c0.14 2.267 1.94 3.787 4.394 3.787zm3.764-5.517c-0.281-2.104-1.917-3.507-4.044-3.507-2.15 0-3.88 1.45-4.114 3.507z" display="inline"/>
     <path d="m130.25 385.21h2.15v1.402c1.076-1.099 2.244-1.637 3.624-1.637 2.758 0 4.559 1.964 4.559 5.4v7.106h-2.174v-6.896c0-2.524-0.818-3.717-2.758-3.717-2.15 0-3.25 1.263-3.25 3.811v6.803h-2.15v-12.272z" display="inline"/>
     <path d="m148.48 397.65c-1.707 0-3.32-0.679-4.512-1.894-1.122-1.169-1.73-2.665-1.73-4.442 0-3.786 2.501-6.335 6.242-6.335 1.917 0 3.506 0.795 4.605 2.244v-2.01h1.987v10.52c0 4.581-2.291 6.942-6.639 6.942-2.595 0-4.559-0.889-6.031-2.758l1.753-1.263c1.075 1.355 2.571 2.104 4.371 2.104 2.852 0 4.325-1.589 4.325-4.581v-0.702c-0.958 1.451-2.454 2.175-4.371 2.175zm4.558-6.312c0-2.595-1.776-4.441-4.254-4.441s-4.254 1.823-4.254 4.441 1.776 4.442 4.254 4.442 4.254-1.846 4.254-4.442z" display="inline"/>
     <path d="m159.16 392.01c0 2.524 1.146 3.856 2.969 3.856 1.847 0 2.969-1.332 2.969-3.856v-6.803h2.174v6.942c0 3.554-1.964 5.634-5.143 5.634s-5.12-2.08-5.12-5.634v-6.942h2.151z" display="inline"/>
     <path d="m170.6 379.62c0.842 0 1.496 0.654 1.496 1.496 0 0.818-0.678 1.473-1.496 1.473-0.795 0-1.496-0.678-1.496-1.473-1e-3 -0.818 0.677-1.496 1.496-1.496zm-1.146 5.587h2.221v12.272h-2.221z" display="inline"/>
     <path d="m174.08 385.21h2.15v1.402c1.075-1.099 2.244-1.637 3.624-1.637 2.758 0 4.558 1.964 4.558 5.4v7.106h-2.174v-6.896c0-2.524-0.818-3.717-2.758-3.717-2.151 0-3.25 1.263-3.25 3.811v6.803h-2.15z" display="inline"/>
     <path d="m201.76 381.38c-1.94 0-3.554 0.654-4.793 1.894-1.355 1.379-2.057 3.18-2.057 5.283s0.701 3.903 2.057 5.283c1.216 1.238 2.853 1.894 4.793 1.894 2.033 0 3.693-0.679 4.885-2.011l1.543 1.66c-1.706 1.636-3.833 2.454-6.428 2.454-2.618 0-4.816-0.842-6.476-2.454-1.8-1.754-2.759-4.114-2.759-6.826s0.959-5.073 2.759-6.826c1.683-1.637 3.857-2.454 6.476-2.454 2.524 0 4.628 0.771 6.265 2.291l-1.496 1.683c-1.216-1.17-2.759-1.871-4.769-1.871z" display="inline"/>
     <path d="m209.8 379.74h2.15v17.743h-2.15z" display="inline"/>
     <path d="m216.19 392.01c0 2.524 1.146 3.856 2.969 3.856 1.847 0 2.969-1.332 2.969-3.856v-6.803h2.174v6.942c0 3.554-1.964 5.634-5.143 5.634-3.18 0-5.119-2.08-5.119-5.634v-6.942h2.15z" display="inline"/>
     <path d="m226.38 379.74h1.987v7.48c1.099-1.449 2.688-2.244 4.605-2.244 3.74 0 6.218 2.549 6.218 6.335 0 1.777-0.585 3.273-1.707 4.442-1.191 1.215-2.805 1.894-4.511 1.894-1.917 0-3.413-0.725-4.442-2.175v2.011h-2.15zm10.543 11.595c0-2.618-1.776-4.441-4.255-4.441-2.478 0-4.254 1.847-4.254 4.441 0 2.596 1.776 4.442 4.254 4.442s4.255-1.824 4.255-4.442z" display="inline"/>
    </g>
    <text transform="translate(138.98,318.67)" display="none" fill="#141e42" font-family="VD-LogoG-Extra-G" font-size="21px">
     <tspan x="0" y="0" display="inline">ペンギ</tspan>
     <tspan x="61.318001" y="0" display="inline" letter-spacing="1">ン</tspan>
     <tspan x="82.732002" y="0" display="inline">Club</tspan>
    </text>
    <g fill="#ed6a1a">
     <g transform="matrix(1.4992 0 0 1.4992 -72.015 -47.352)">
      <path d="m147.42 99.64 28.357-0.9671s-1.4138-3.0619-3.2764-3.5753c-4.4972-1.2397-25.408 2.7493-26.786 3.4435-1.7325 0.8724-2.2497 21.595 0.40237 21.833 6.0301 0.54153 29.389-0.61355 33.856 0 2.6057 0.35787-1.0175-18.149-2.7591-19.21-2.3543-1.4349-29.066 0.58615-29.43-0.46889z" fill="#ed6a1a"/>
      <circle cx="175.51" cy="111.07" r="1.6527" fill="#fff"/>
     </g>
    </g>
   </g>
  </g>
 </g>
</svg>
