<?xml version="1.0" encoding="UTF-8" standalone="no"?>
<!-- Created with Inkscape (http://www.inkscape.org/) -->

<svg
   xmlns:dc="http://purl.org/dc/elements/1.1/"
   xmlns:cc="http://creativecommons.org/ns#"
   xmlns:rdf="http://www.w3.org/1999/02/22-rdf-syntax-ns#"
   xmlns:svg="http://www.w3.org/2000/svg"
   xmlns="http://www.w3.org/2000/svg"
   xmlns:sodipodi="http://sodipodi.sourceforge.net/DTD/sodipodi-0.dtd"
   xmlns:inkscape="http://www.inkscape.org/namespaces/inkscape"
   width="202.05579mm"
   height="30.735996mm"
   viewBox="0 0 202.05579 30.735996"
   version="1.1"
   id="svg8"
   inkscape:version="0.92.2 (5c3e80d, 2017-08-06)"
   sodipodi:docname="expense-tracker.svg">
  <defs
     id="defs2" />
  <sodipodi:namedview
     id="base"
     pagecolor="#ffffff"
     bordercolor="#666666"
     borderopacity="1.0"
     inkscape:pageopacity="0.0"
     inkscape:pageshadow="2"
     inkscape:zoom="0.98994949"
     inkscape:cx="415.48828"
     inkscape:cy="-469.76077"
     inkscape:document-units="mm"
     inkscape:current-layer="g889"
     showgrid="false"
     fit-margin-top="0"
     fit-margin-left="0"
     fit-margin-right="0"
     fit-margin-bottom="0"
     inkscape:window-width="3840"
     inkscape:window-height="2066"
     inkscape:window-x="-11"
     inkscape:window-y="49"
     inkscape:window-maximized="1" />
  <metadata
     id="metadata5">
    <rdf:RDF>
      <cc:Work
         rdf:about="">
        <dc:format>image/svg+xml</dc:format>
        <dc:type
           rdf:resource="http://purl.org/dc/dcmitype/StillImage" />
        <dc:title></dc:title>
      </cc:Work>
    </rdf:RDF>
  </metadata>
  <g
     inkscape:label="Layer 1"
     inkscape:groupmode="layer"
     id="layer1"
     transform="translate(-2.4054272,-4.60713)">
    <g
       id="g891"
       transform="matrix(0.99997539,0,0,0.99997539,12.247592,-146.95149)">
      <g
         id="g889"
         transform="matrix(0.60507,0,0,0.60507,-93.513,97.894)">
        <g
           id="g845"
           display="none"
           style="display:none;fill:#141e42">
          <path
             id="path823"
             display="inline"
             d="m 102.39,378.49 h 7.559 c 4.208,0 6.709,2.384 6.709,5.891 0,3.39 -2.525,5.82 -6.265,5.82 h -5.688 v 7.281 h -2.314 V 378.49 Z m 7.909,9.584 c 2.501,0 3.974,-1.402 3.974,-3.787 0,-2.384 -1.496,-3.693 -4.348,-3.693 h -5.221 v 7.48 z"
             inkscape:connector-curvature="0"
             style="display:inline" />
          <path
             id="path825"
             display="inline"
             d="m 122.39,395.85 c 1.566,0 2.945,-0.654 4.091,-1.986 l 1.566,1.262 c -1.566,1.823 -3.39,2.665 -5.728,2.665 -1.94,0 -3.67,-0.725 -4.862,-2.01 -1.052,-1.146 -1.636,-2.688 -1.636,-4.349 0,-3.927 2.595,-6.521 6.312,-6.521 3.787,0 6.429,2.734 6.429,6.989 v 0.163 h -10.566 c 0.14,2.267 1.94,3.787 4.394,3.787 z m 3.764,-5.517 c -0.281,-2.104 -1.917,-3.507 -4.044,-3.507 -2.15,0 -3.88,1.45 -4.114,3.507 z"
             inkscape:connector-curvature="0"
             style="display:inline" />
          <path
             id="path827"
             display="inline"
             d="m 130.25,385.21 h 2.15 v 1.402 c 1.076,-1.099 2.244,-1.637 3.624,-1.637 2.758,0 4.559,1.964 4.559,5.4 v 7.106 h -2.174 v -6.896 c 0,-2.524 -0.818,-3.717 -2.758,-3.717 -2.15,0 -3.25,1.263 -3.25,3.811 v 6.803 h -2.15 V 385.21 Z"
             inkscape:connector-curvature="0"
             style="display:inline" />
          <path
             id="path829"
             display="inline"
             d="m 148.48,397.65 c -1.707,0 -3.32,-0.679 -4.512,-1.894 -1.122,-1.169 -1.73,-2.665 -1.73,-4.442 0,-3.786 2.501,-6.335 6.242,-6.335 1.917,0 3.506,0.795 4.605,2.244 v -2.01 h 1.987 v 10.52 c 0,4.581 -2.291,6.942 -6.639,6.942 -2.595,0 -4.559,-0.889 -6.031,-2.758 l 1.753,-1.263 c 1.075,1.355 2.571,2.104 4.371,2.104 2.852,0 4.325,-1.589 4.325,-4.581 v -0.702 c -0.958,1.451 -2.454,2.175 -4.371,2.175 z m 4.558,-6.312 c 0,-2.595 -1.776,-4.441 -4.254,-4.441 -2.478,0 -4.254,1.823 -4.254,4.441 0,2.618 1.776,4.442 4.254,4.442 2.478,0 4.254,-1.846 4.254,-4.442 z"
             inkscape:connector-curvature="0"
             style="display:inline" />
          <path
             id="path831"
             display="inline"
             d="m 159.16,392.01 c 0,2.524 1.146,3.856 2.969,3.856 1.847,0 2.969,-1.332 2.969,-3.856 v -6.803 h 2.174 v 6.942 c 0,3.554 -1.964,5.634 -5.143,5.634 -3.179,0 -5.12,-2.08 -5.12,-5.634 v -6.942 h 2.151 z"
             inkscape:connector-curvature="0"
             style="display:inline" />
          <path
             id="path833"
             display="inline"
             d="m 170.6,379.62 c 0.842,0 1.496,0.654 1.496,1.496 0,0.818 -0.678,1.473 -1.496,1.473 -0.795,0 -1.496,-0.678 -1.496,-1.473 -0.001,-0.818 0.677,-1.496 1.496,-1.496 z m -1.146,5.587 h 2.221 v 12.272 h -2.221 z"
             inkscape:connector-curvature="0"
             style="display:inline" />
          <path
             id="path835"
             display="inline"
             d="m 174.08,385.21 h 2.15 v 1.402 c 1.075,-1.099 2.244,-1.637 3.624,-1.637 2.758,0 4.558,1.964 4.558,5.4 v 7.106 h -2.174 v -6.896 c 0,-2.524 -0.818,-3.717 -2.758,-3.717 -2.151,0 -3.25,1.263 -3.25,3.811 v 6.803 h -2.15 z"
             inkscape:connector-curvature="0"
             style="display:inline" />
          <path
             id="path837"
             display="inline"
             d="m 201.76,381.38 c -1.94,0 -3.554,0.654 -4.793,1.894 -1.355,1.379 -2.057,3.18 -2.057,5.283 0,2.103 0.701,3.903 2.057,5.283 1.216,1.238 2.853,1.894 4.793,1.894 2.033,0 3.693,-0.679 4.885,-2.011 l 1.543,1.66 c -1.706,1.636 -3.833,2.454 -6.428,2.454 -2.618,0 -4.816,-0.842 -6.476,-2.454 -1.8,-1.754 -2.759,-4.114 -2.759,-6.826 0,-2.712 0.959,-5.073 2.759,-6.826 1.683,-1.637 3.857,-2.454 6.476,-2.454 2.524,0 4.628,0.771 6.265,2.291 l -1.496,1.683 c -1.216,-1.17 -2.759,-1.871 -4.769,-1.871 z"
             inkscape:connector-curvature="0"
             style="display:inline" />
          <path
             id="path839"
             display="inline"
             d="m 209.8,379.74 h 2.15 v 17.743 h -2.15 z"
             inkscape:connector-curvature="0"
             style="display:inline" />
          <path
             id="path841"
             display="inline"
             d="m 216.19,392.01 c 0,2.524 1.146,3.856 2.969,3.856 1.847,0 2.969,-1.332 2.969,-3.856 v -6.803 h 2.174 v 6.942 c 0,3.554 -1.964,5.634 -5.143,5.634 -3.18,0 -5.119,-2.08 -5.119,-5.634 v -6.942 h 2.15 z"
             inkscape:connector-curvature="0"
             style="display:inline" />
          <path
             id="path843"
             display="inline"
             d="m 226.38,379.74 h 1.987 v 7.48 c 1.099,-1.449 2.688,-2.244 4.605,-2.244 3.74,0 6.218,2.549 6.218,6.335 0,1.777 -0.585,3.273 -1.707,4.442 -1.191,1.215 -2.805,1.894 -4.511,1.894 -1.917,0 -3.413,-0.725 -4.442,-2.175 v 2.011 h -2.15 z m 10.543,11.595 c 0,-2.618 -1.776,-4.441 -4.255,-4.441 -2.478,0 -4.254,1.847 -4.254,4.441 0,2.596 1.776,4.442 4.254,4.442 2.478,0 4.255,-1.824 4.255,-4.442 z"
             inkscape:connector-curvature="0"
             style="display:inline" />
        </g>
        <text
           id="text875"
           font-size="21px"
           display="none"
           transform="translate(138.98,318.67)"
           style="font-size:21px;font-family:VD-LogoG-Extra-G;display:none;fill:#141e42">
          <tspan
             id="tspan869"
             display="inline"
             y="0"
             x="0"
             style="display:inline">ペンギ</tspan>
          <tspan
             id="tspan871"
             letter-spacing="1"
             display="inline"
             y="0"
             x="61.318001"
             style="letter-spacing:1;display:inline">ン</tspan>
          <tspan
             id="tspan873"
             display="inline"
             y="0"
             x="82.732002"
             style="display:inline">Club</tspan>
        </text>
        <g
           id="g885"
           style="fill:#ed6a1a">
          <g
             id="g960"
             transform="matrix(1.4991705,0,0,1.4991705,-72.015404,-47.35165)">
            <path
               inkscape:connector-curvature="0"
               d="m 147.41885,99.640288 28.357,-0.9671 c 0,0 -1.4138,-3.0619 -3.2764,-3.5753 -4.4972,-1.2397 -25.408,2.7493 -26.786,3.4435 -1.7325,0.8724 -2.2497,21.595002 0.40237,21.833002 6.0301,0.54153 29.389,-0.61355 33.856,0 2.6057,0.35787 -1.0175,-18.149 -2.7591,-19.21 -2.3543,-1.434902 -29.066,0.58615 -29.43,-0.46889 z"
               id="path883"
               style="fill:#ed6a1a;stroke-width:1" />
            <circle
               style="fill:#ffffff;stroke-width:1"
               cx="175.50885"
               cy="111.0703"
               r="1.6526999"
               id="circle887" />
          </g>
          <text
             xml:space="preserve"
             style="font-style:normal;font-variant:normal;font-weight:normal;font-stretch:normal;font-size:32.38581848px;line-height:1.25;font-family:'Sentinel Black';-inkscape-font-specification:'Sentinel Black, ';letter-spacing:0px;word-spacing:0px;fill:#141e42;fill-opacity:1;stroke:none;stroke-width:0.80964547"
             x="208.03546"
             y="126.06538"
             id="text964"><tspan
               sodipodi:role="line"
               id="tspan962"
               x="208.03546"
               y="126.06538"
               style="font-style:normal;font-variant:normal;font-weight:normal;font-stretch:normal;font-family:Gotham;-inkscape-font-specification:Gotham;fill:#141e42;fill-opacity:1;stroke-width:0.80964547"><tspan
   style="font-style:normal;font-variant:normal;font-weight:500;font-stretch:normal;font-family:Gotham;-inkscape-font-specification:'Gotham Medium';fill:#141e42;fill-opacity:1;stroke-width:0.80964547"
   id="tspan972">Expense</tspan>Tracker</tspan></text>
        </g>
      </g>
    </g>
  </g>
</svg>
